HIERARCHY
ROOT Bip001_Pelvis
{
  OFFSET 34.4345 95.6767 -26.8758
  CHANNELS 6 Xposition Yposition Zposition Zrotation Xrotation Yrotation
  JOINT Bip001_Spine
  {
    OFFSET 1.4188e-005 10.2191 -0.0116013
    CHANNELS 3 Zrotation Xrotation Yrotation
    JOINT Bip001_L_Thigh
    {
      OFFSET 11.0458 -10.2192 0.0116197
      CHANNELS 3 Zrotation Xrotation Yrotation
      JOINT Bip001_L_Calf
      {
        OFFSET -0.707118 -44.0221 0.360014
        CHANNELS 3 Zrotation Xrotation Yrotation
        JOINT Bip001_L_Foot
        {
          OFFSET -0.651902 -40.5938 -3.56146
          CHANNELS 3 Zrotation Xrotation Yrotation
          JOINT Bip001_L_Toe0
          {
            OFFSET 0.0530839 -10.2181 13.1504
            CHANNELS 3 Zrotation Xrotation Yrotation
            End Site
            {
              OFFSET -1.02532e-005 0 7.55606
            }
          }
        }
      }
    }
    JOINT Bip001_R_Thigh
    {
      OFFSET -11.0458 -10.2191 0.0115893
      CHANNELS 3 Zrotation Xrotation Yrotation
      JOINT Bip001_R_Calf
      {
        OFFSET 0.706994 -44.0221 0.35984
        CHANNELS 3 Zrotation Xrotation Yrotation
        JOINT Bip001_R_Foot
        {
          OFFSET 0.651786 -40.5938 -3.5613
          CHANNELS 3 Zrotation Xrotation Yrotation
          JOINT Bip001_R_Toe0
          {
            OFFSET -0.0531479 -10.2181 13.1504
            CHANNELS 3 Zrotation Xrotation Yrotation
            End Site
            {
              OFFSET -1.02894e-005 0 7.55606
            }
          }
        }
      }
    }
    JOINT Bip001_Spine1
    {
      OFFSET 1.87041e-005 14.5736 1.08638
      CHANNELS 3 Zrotation Xrotation Yrotation
      JOINT Bip001_Spine2
      {
        OFFSET 2.24614e-005 14.5058 -1.69078
        CHANNELS 3 Zrotation Xrotation Yrotation
        JOINT Bip001_Neck
        {
          OFFSET 2.20278e-005 15.3945 -0.489414
          CHANNELS 3 Zrotation Xrotation Yrotation
          JOINT Bip001_L_Clavicle
          {
            OFFSET 6.06036 -0.000579998 0.00836775
            CHANNELS 3 Zrotation Xrotation Yrotation
            JOINT Bip001_L_UpperArm
            {
              OFFSET 11.5509 -0.0600302 0.00193952
              CHANNELS 3 Zrotation Xrotation Yrotation
              JOINT Bip001_L_Forearm
              {
                OFFSET 25.9523 0.0806089 -2.15551
                CHANNELS 3 Zrotation Xrotation Yrotation
                JOINT Bip001_L_Hand
                {
                  OFFSET 32.2475 0.153767 1.63968
                  CHANNELS 3 Zrotation Xrotation Yrotation
                  JOINT Bip001_L_Finger0
                  {
                    OFFSET 6.04639 -2.20976 5.90322
                    CHANNELS 3 Zrotation Xrotation Yrotation
                    End Site
                    {
                      OFFSET 4.22375 -1.43895 0.606485
                    }
                  }
                  JOINT Bip001_L_Finger1
                  {
                    OFFSET 11.0826 -0.704819 -0.198153
                    CHANNELS 3 Zrotation Xrotation Yrotation
                    End Site
                    {
                      OFFSET 6.20027 -0.397518 -0.0787166
                    }
                  }
                }
              }
            }
          }
          JOINT Bip001_R_Clavicle
          {
            OFFSET -6.06037 -0.000563197 0.00835105
            CHANNELS 3 Zrotation Xrotation Yrotation
            JOINT Bip001_R_UpperArm
            {
              OFFSET -11.5509 -0.0599978 0.00190698
              CHANNELS 3 Zrotation Xrotation Yrotation
              JOINT Bip001_R_Forearm
              {
                OFFSET -25.9523 0.0806822 -2.15589
                CHANNELS 3 Zrotation Xrotation Yrotation
                JOINT Bip001_R_Hand
                {
                  OFFSET -32.2475 0.153859 1.63989
                  CHANNELS 3 Zrotation Xrotation Yrotation
                  JOINT Bip001_R_Finger0
                  {
                    OFFSET -6.04641 -2.20976 5.90317
                    CHANNELS 3 Zrotation Xrotation Yrotation
                    End Site
                    {
                      OFFSET -4.22376 -1.43895 0.60647
                    }
                  }
                  JOINT Bip001_R_Finger1
                  {
                    OFFSET -11.0826 -0.704794 -0.198182
                    CHANNELS 3 Zrotation Xrotation Yrotation
                    End Site
                    {
                      OFFSET -6.20028 -0.397504 -0.0787333
                    }
                  }
                }
              }
            }
          }
          JOINT Bip001_Head
          {
            OFFSET 1.09673e-005 11.2744 2.05948
            CHANNELS 3 Zrotation Xrotation Yrotation
            End Site
            {
              OFFSET 2.89576e-005 20.8808 -2.77728e-005
            }
          }
        }
      }
    }
  }
}
MOTION
Frames:	6
Frame Time:	0.04
35.2394 94.8196 -31.4223 -5.88048 -1.85013 13.6502 -0.748159 1.77382 1.78476 12.7141 -14.1047 8.59181 0.750542 25.4727 -14.346 5.00981 -10.2793 0.226002 0.807319 -4.9308 -0.22999 1.83304 0.480082 -5.58158 0.790534 7.16828 -0.94566 -8.90447 -2.0746 -13.4485 3.57094 -11.5634 3.72849 -1.55232 3.52349 3.59507 -1.55231 3.52344 3.59507 2.30023 -10.9993 -0.0749996 -25.3246 14.5585 -7.72431 -35.2982 32.9953 -1.32609 19.654 3.21253 -31.733 6.45927 3.85545 -2.07272 -3.18055e-015 3.18055e-015 -3.18055e-015 -6.36111e-015 0 -3.18055e-015 5.59732 14.9612 21.1364 50.6499 -54.0007 55.3084 -56.4036 8.56025 78.0071 -22.7194 -3.10412 1.00917 2.64834e-031 -6.36111e-015 2.38542e-015 3.08974e-031 -6.36111e-015 2.78299e-015 -6.4355 0.870479 1.87445 
35.3663 95.1746 -31.5391 -6.37352 -0.884674 15.7656 -0.882174 1.58164 2.1804 12.9836 -14.9799 7.4821 -0.103798 23.9391 -14.9239 4.40078 -9.75818 0.184682 0.660759 -4.43871 -0.272172 2.57527 1.51292 -5.69992 0.66606 3.28741 -1.12856 -8.89059 0.277567 -14.9793 3.57243 -11.5359 3.68619 -1.82504 3.12992 4.38735 -1.82504 3.13019 4.38735 2.40649 -11.1464 -1.88127 -26.6352 13.9046 -5.82334 -34.8266 31.4285 -1.46303 18.5405 2.79599 -31.9378 7.5945 3.46647 -2.32576 7.95139e-015 -3.18055e-015 -0 3.18055e-015 0 -0 4.36376 15.2809 24.4065 37.4435 -45.0805 50.4888 -52.7139 8.34725 64.0679 -19.0028 -3.35467 0.701407 1.59028e-015 3.18055e-015 7.95139e-016 4.77083e-015 3.18056e-015 -3.18055e-015 -6.81674 1.75382 0.313309 
35.465 95.4342 -31.6519 -6.63482 -0.0334967 17.678 -1.02216 1.50199 2.42454 13.3631 -15.8402 7.81836 -0.879238 22.7828 -16.131 2.97757 -9.85297 0.138127 0.457036 -3.1793 -0.364308 2.85854 1.43104 -5.92101 0.603117 1.89445 -1.44131 -8.72994 1.2489 -16.0656 3.58496 -11.5353 3.64134 -2.10776 2.95834 4.8817 -2.10776 2.95822 4.88172 2.7501 -11.6854 -3.43731 -27.251 13.5928 -3.95919 -34.909 31.0788 -1.5125 17.0984 2.70009 -32.0814 7.68575 3.20049 -2.54074 -1.59028e-015 0 -0 -3.18055e-015 -3.18056e-015 -0 1.8036 15.5313 27.1842 31.5599 -36.3704 53.9605 -54.204 10.6208 45.5056 -22.0815 -0.436959 -0.456647 4.41391e-031 -6.36111e-015 3.97569e-015 3.18055e-015 -9.54167e-015 2.38542e-015 -7.48795 3.73363 -0.807512 
35.5458 95.5024 -31.71 -6.75191 0.213382 19.245 -1.01112 1.59443 2.44692 13.1152 -16.5581 7.94154 -0.667237 22.4787 -17.436 2.71236 -9.70756 0.133331 0.496328 -2.91728 -0.549681 2.89347 1.25889 -6.05415 0.61989 1.7551 -1.63763 -8.65579 1.47208 -16.9026 3.62912 -11.62 3.62688 -2.08745 3.14406 4.92368 -2.08897 3.14393 4.92292 3.43939 -9.66951 -4.57927 -27.8733 11.3474 -4.34767 -35.4645 32.0892 -0.195927 16.6304 2.37026 -31.9273 7.14931 3.02994 -2.73771 -9.54166e-015 0 -3.18055e-015 -6.36111e-015 0 -0 -0.59444 13.3115 31.1191 63.8746 -46.0531 81.975 -86.2213 23.6121 63.0583 5.76573 -15.4775 -7.24068 3.18055e-015 1.59028e-015 -1.59028e-015 3.18055e-015 3.18056e-015 -3.18055e-015 -8.26781 2.79266 -1.59868 
35.7437 95.4963 -31.7414 -6.53327 -0.0891048 20.1309 -0.887912 1.82378 2.18955 12.4197 -16.5274 6.39989 -0.771565 22.1916 -16.6995 3.33864 -9.22273 0.136056 0.712885 -3.2948 -0.710503 2.5191 1.47464 -6.31394 0.754146 1.86472 -1.56345 -8.75344 1.55489 -17.0996 3.6632 -11.6695 3.59033 -1.84631 3.61202 4.41042 -1.84633 3.61204 4.41045 5.5123 -7.98023 -5.86409 -27.8234 8.77856 -3.4018 -38.6189 34.7587 0.161192 17.0342 3.36319 -30.2441 6.40738 3.06327 -3.03888 -1.59028e-015 -6.36111e-015 6.36111e-015 -3.18055e-015 -9.54167e-015 3.18055e-015 -0.515154 11.8202 28.9753 61.9677 -45.0958 89.0332 -86.7088 23.691 67.591 7.97038 -19.3534 -15.8032 -3.18055e-015 1.59028e-015 -1.59028e-015 -6.36111e-015 3.18056e-015 -1.59028e-015 -9.32975 2.92194 -2.05277 
36.1292 95.4956 -31.7138 -5.77599 -1.09226 19.2788 -0.557774 2.00704 1.91348 11.3721 -14.9467 5.43553 -0.696654 21.8925 -14.8547 2.66258 -9.8089 0.136188 0.49714 -2.778 -0.550052 1.50426 2.39013 -6.40077 0.786686 2.17394 -1.4582 -8.78488 1.49388 -16.17 3.71303 -11.8286 3.65637 -1.18907 3.99387 3.85197 -1.18629 3.9939 3.85122 7.74996 -5.86438 -7.28788 -29.2158 5.87766 -2.9517 -42.9242 36.6111 3.4054 18.6534 6.31147 -29.9985 4.10201 3.44138 -3.03794 -3.53112e-031 6.36111e-015 3.18055e-015 -1.59028e-015 3.18056e-015 -0 -7.76772 6.80694 24.7824 41.4608 -40.8136 78.1662 -68.5192 22.093 54.4459 0.260718 -7.72989 -0.982353 0 0 -7.95139e-016 3.18055e-015 3.18056e-015 -7.95139e-016 -10.9648 2.62003 -2.42751 
